<svg width="126" height="26" viewBox="0 0 126 26" fill="none" xmlns="http://www.w3.org/2000/svg">
<path d="M31.632 19C31.5253 19 31.4347 18.9627 31.36 18.888C31.2853 18.8133 31.248 18.7227 31.248 18.616V8.2C31.248 8.08267 31.28 7.98667 31.344 7.912C31.4187 7.83733 31.5147 7.8 31.632 7.8H33.04C33.1573 7.8 33.2533 7.83733 33.328 7.912C33.4027 7.98667 33.44 8.08267 33.44 8.2V11.944L37.056 8.088C37.1947 7.896 37.4027 7.8 37.68 7.8H39.264C39.3493 7.8 39.424 7.832 39.488 7.896C39.5627 7.96 39.6 8.04 39.6 8.136C39.6 8.21067 39.5787 8.27467 39.536 8.328L35.136 13.16L39.84 18.456C39.8933 18.52 39.92 18.5893 39.92 18.664C39.92 18.76 39.8827 18.84 39.808 18.904C39.744 18.968 39.6693 19 39.584 19H37.936C37.6693 19 37.4613 18.904 37.312 18.712L33.44 14.472V18.616C33.44 18.7333 33.4027 18.8293 33.328 18.904C33.2533 18.968 33.1573 19 33.04 19H31.632ZM44.2806 19.16C43.0966 19.16 42.1526 18.8187 41.4486 18.136C40.7553 17.4427 40.3873 16.472 40.3446 15.224L40.3286 14.824L40.3446 14.424C40.398 13.208 40.7713 12.2533 41.4646 11.56C42.1686 10.8667 43.1073 10.52 44.2806 10.52C45.5393 10.52 46.51 10.904 47.1926 11.672C47.886 12.44 48.2326 13.464 48.2326 14.744V15.08C48.2326 15.1867 48.1953 15.2773 48.1206 15.352C48.046 15.4267 47.95 15.464 47.8326 15.464H42.5206V15.592C42.542 16.1787 42.702 16.6747 43.0006 17.08C43.31 17.4747 43.7313 17.672 44.2646 17.672C44.894 17.672 45.4006 17.4267 45.7846 16.936C45.8806 16.8187 45.9553 16.744 46.0086 16.712C46.0726 16.68 46.1633 16.664 46.2806 16.664H47.6566C47.7526 16.664 47.8326 16.696 47.8966 16.76C47.9713 16.8133 48.0086 16.8827 48.0086 16.968C48.0086 17.224 47.854 17.528 47.5446 17.88C47.246 18.2213 46.814 18.52 46.2486 18.776C45.6833 19.032 45.0273 19.16 44.2806 19.16ZM46.0566 14.12V14.072C46.0566 13.4427 45.8966 12.936 45.5766 12.552C45.2673 12.168 44.8353 11.976 44.2806 11.976C43.726 11.976 43.294 12.168 42.9846 12.552C42.6753 12.936 42.5206 13.4427 42.5206 14.072V14.12H46.0566ZM53.515 19.16C52.331 19.16 51.387 18.8187 50.683 18.136C49.9897 17.4427 49.6217 16.472 49.579 15.224L49.563 14.824L49.579 14.424C49.6323 13.208 50.0057 12.2533 50.699 11.56C51.403 10.8667 52.3417 10.52 53.515 10.52C54.7737 10.52 55.7443 10.904 56.427 11.672C57.1203 12.44 57.467 13.464 57.467 14.744V15.08C57.467 15.1867 57.4297 15.2773 57.355 15.352C57.2803 15.4267 57.1843 15.464 57.067 15.464H51.755V15.592C51.7763 16.1787 51.9363 16.6747 52.235 17.08C52.5443 17.4747 52.9657 17.672 53.499 17.672C54.1283 17.672 54.635 17.4267 55.019 16.936C55.115 16.8187 55.1897 16.744 55.243 16.712C55.307 16.68 55.3977 16.664 55.515 16.664H56.891C56.987 16.664 57.067 16.696 57.131 16.76C57.2057 16.8133 57.243 16.8827 57.243 16.968C57.243 17.224 57.0883 17.528 56.779 17.88C56.4803 18.2213 56.0483 18.52 55.483 18.776C54.9177 19.032 54.2617 19.16 53.515 19.16ZM55.291 14.12V14.072C55.291 13.4427 55.131 12.936 54.811 12.552C54.5017 12.168 54.0697 11.976 53.515 11.976C52.9603 11.976 52.5283 12.168 52.219 12.552C51.9097 12.936 51.755 13.4427 51.755 14.072V14.12H55.291ZM59.5494 19C59.4427 19 59.352 18.9627 59.2774 18.888C59.2027 18.8133 59.1654 18.7227 59.1654 18.616V11.064C59.1654 10.9573 59.2027 10.8667 59.2774 10.792C59.352 10.7173 59.4427 10.68 59.5494 10.68H60.8614C60.968 10.68 61.0587 10.7173 61.1334 10.792C61.208 10.8667 61.2454 10.9573 61.2454 11.064V11.72C61.8747 10.92 62.7654 10.52 63.9174 10.52C64.8987 10.52 65.6774 10.8453 66.2534 11.496C66.8294 12.136 67.1174 13.0107 67.1174 14.12V18.616C67.1174 18.7227 67.08 18.8133 67.0054 18.888C66.9414 18.9627 66.8507 19 66.7334 19H65.3254C65.2187 19 65.128 18.9627 65.0534 18.888C64.9787 18.8133 64.9414 18.7227 64.9414 18.616V14.216C64.9414 13.5867 64.7867 13.1013 64.4774 12.76C64.1787 12.408 63.7414 12.232 63.1654 12.232C62.6 12.232 62.152 12.408 61.8214 12.76C61.5014 13.112 61.3414 13.5973 61.3414 14.216V18.616C61.3414 18.7227 61.304 18.8133 61.2294 18.888C61.1654 18.9627 61.0747 19 60.9574 19H59.5494ZM72.3978 19C72.2911 19 72.2058 18.968 72.1418 18.904C72.0778 18.84 72.0458 18.7547 72.0458 18.648V8.76H68.8778C68.7711 8.76 68.6858 8.728 68.6217 8.664C68.5578 8.6 68.5258 8.51467 68.5258 8.408V8.168C68.5258 8.06133 68.5578 7.976 68.6217 7.912C68.6858 7.83733 68.7711 7.8 68.8778 7.8H76.2058C76.3231 7.8 76.4138 7.832 76.4778 7.896C76.5418 7.96 76.5738 8.05067 76.5738 8.168V8.408C76.5738 8.51467 76.5364 8.6 76.4618 8.664C76.3978 8.728 76.3124 8.76 76.2058 8.76H73.0538V18.648C73.0538 18.7547 73.0164 18.84 72.9418 18.904C72.8778 18.968 72.7924 19 72.6858 19H72.3978ZM78.3046 19C78.198 19 78.1126 18.968 78.0486 18.904C77.9846 18.84 77.9526 18.7547 77.9526 18.648V7.992C77.9526 7.88533 77.9846 7.8 78.0486 7.736C78.1126 7.672 78.198 7.64 78.3046 7.64H78.5766C78.6833 7.64 78.7686 7.672 78.8326 7.736C78.8966 7.8 78.9286 7.88533 78.9286 7.992V11.784C79.2486 11.368 79.6113 11.0533 80.0166 10.84C80.4326 10.6267 80.966 10.52 81.6166 10.52C82.662 10.52 83.4673 10.856 84.0326 11.528C84.598 12.1893 84.8806 13.048 84.8806 14.104V18.648C84.8806 18.7547 84.8486 18.84 84.7846 18.904C84.7206 18.968 84.6353 19 84.5286 19H84.2566C84.15 19 84.0646 18.968 84.0006 18.904C83.9366 18.84 83.9046 18.7547 83.9046 18.648V14.184C83.9046 13.32 83.6913 12.648 83.2646 12.168C82.8486 11.688 82.246 11.448 81.4566 11.448C80.6886 11.448 80.0753 11.6933 79.6166 12.184C79.158 12.664 78.9286 13.3307 78.9286 14.184V18.648C78.9286 18.7547 78.8966 18.84 78.8326 18.904C78.7686 18.968 78.6833 19 78.5766 19H78.3046ZM90.4778 19.16C89.4644 19.16 88.6484 18.8293 88.0298 18.168C87.4111 17.496 87.0591 16.6 86.9738 15.48L86.9578 14.84L86.9738 14.2C87.0591 13.0907 87.4058 12.2 88.0138 11.528C88.6324 10.856 89.4538 10.52 90.4778 10.52C91.5871 10.52 92.4511 10.888 93.0698 11.624C93.6991 12.36 94.0138 13.368 94.0138 14.648V14.888C94.0138 14.9947 93.9764 15.08 93.9018 15.144C93.8378 15.208 93.7524 15.24 93.6458 15.24H87.9498V15.4C87.9711 15.9013 88.0831 16.3707 88.2858 16.808C88.4991 17.2347 88.7924 17.5813 89.1658 17.848C89.5391 18.104 89.9764 18.232 90.4778 18.232C91.0644 18.232 91.5391 18.12 91.9018 17.896C92.2751 17.6613 92.5418 17.4267 92.7018 17.192C92.7978 17.064 92.8671 16.984 92.9098 16.952C92.9631 16.92 93.0538 16.904 93.1818 16.904H93.4378C93.5338 16.904 93.6138 16.9307 93.6778 16.984C93.7418 17.0373 93.7738 17.1067 93.7738 17.192C93.7738 17.416 93.6298 17.688 93.3418 18.008C93.0644 18.3173 92.6751 18.5893 92.1738 18.824C91.6724 19.048 91.1071 19.16 90.4778 19.16ZM93.0378 14.344V14.28C93.0378 13.4587 92.8031 12.7813 92.3338 12.248C91.8751 11.7147 91.2564 11.448 90.4778 11.448C89.6991 11.448 89.0804 11.7147 88.6218 12.248C88.1738 12.7813 87.9498 13.4587 87.9498 14.28V14.344H93.0378ZM96.4761 19C96.3695 19 96.2841 18.968 96.2201 18.904C96.1561 18.84 96.1241 18.7547 96.1241 18.648V11.032C96.1241 10.9253 96.1561 10.84 96.2201 10.776C96.2841 10.712 96.3695 10.68 96.4761 10.68H96.7481C96.8548 10.68 96.9401 10.712 97.0041 10.776C97.0681 10.84 97.1001 10.9253 97.1001 11.032V11.592C97.3775 11.24 97.6975 10.9733 98.0601 10.792C98.4335 10.6107 98.8761 10.52 99.3881 10.52C100.583 10.52 101.436 11.0213 101.948 12.024C102.204 11.5653 102.567 11.2027 103.036 10.936C103.516 10.6587 104.06 10.52 104.668 10.52C105.553 10.52 106.273 10.824 106.828 11.432C107.383 12.0293 107.66 12.8827 107.66 13.992V18.648C107.66 18.7547 107.628 18.84 107.564 18.904C107.5 18.968 107.415 19 107.308 19H107.036C106.929 19 106.844 18.968 106.78 18.904C106.716 18.84 106.684 18.7547 106.684 18.648V14.152C106.684 13.1813 106.481 12.488 106.076 12.072C105.681 11.656 105.159 11.448 104.508 11.448C103.932 11.448 103.431 11.6613 103.004 12.088C102.588 12.504 102.38 13.192 102.38 14.152V18.648C102.38 18.7547 102.348 18.84 102.284 18.904C102.22 18.968 102.135 19 102.028 19H101.756C101.649 19 101.564 18.968 101.5 18.904C101.436 18.84 101.404 18.7547 101.404 18.648V14.152C101.404 13.192 101.196 12.504 100.78 12.088C100.364 11.6613 99.8468 11.448 99.2281 11.448C98.6521 11.448 98.1508 11.6613 97.7241 12.088C97.3081 12.504 97.1001 13.1867 97.1001 14.136V18.648C97.1001 18.7547 97.0681 18.84 97.0041 18.904C96.9401 18.968 96.8548 19 96.7481 19H96.4761ZM113.259 19.16C112.246 19.16 111.43 18.8293 110.811 18.168C110.192 17.496 109.84 16.6 109.755 15.48L109.739 14.84L109.755 14.2C109.84 13.0907 110.187 12.2 110.795 11.528C111.414 10.856 112.235 10.52 113.259 10.52C114.368 10.52 115.232 10.888 115.851 11.624C116.48 12.36 116.795 13.368 116.795 14.648V14.888C116.795 14.9947 116.758 15.08 116.683 15.144C116.619 15.208 116.534 15.24 116.427 15.24H110.731V15.4C110.752 15.9013 110.864 16.3707 111.067 16.808C111.28 17.2347 111.574 17.5813 111.947 17.848C112.32 18.104 112.758 18.232 113.259 18.232C113.846 18.232 114.32 18.12 114.683 17.896C115.056 17.6613 115.323 17.4267 115.483 17.192C115.579 17.064 115.648 16.984 115.691 16.952C115.744 16.92 115.835 16.904 115.963 16.904H116.219C116.315 16.904 116.395 16.9307 116.459 16.984C116.523 17.0373 116.555 17.1067 116.555 17.192C116.555 17.416 116.411 17.688 116.123 18.008C115.846 18.3173 115.456 18.5893 114.955 18.824C114.454 19.048 113.888 19.16 113.259 19.16ZM115.819 14.344V14.28C115.819 13.4587 115.584 12.7813 115.115 12.248C114.656 11.7147 114.038 11.448 113.259 11.448C112.48 11.448 111.862 11.7147 111.403 12.248C110.955 12.7813 110.731 13.4587 110.731 14.28V14.344H115.819ZM121.545 19.16C120.852 19.16 120.265 19.0427 119.785 18.808C119.316 18.5733 118.959 18.3067 118.713 18.008C118.479 17.7093 118.361 17.4693 118.361 17.288C118.361 17.192 118.399 17.1173 118.473 17.064C118.548 17 118.628 16.968 118.713 16.968H118.953C119.028 16.968 119.087 16.984 119.129 17.016C119.183 17.0373 119.241 17.0907 119.305 17.176C119.54 17.5067 119.823 17.768 120.153 17.96C120.495 18.1413 120.959 18.232 121.545 18.232C122.207 18.232 122.74 18.1093 123.145 17.864C123.551 17.608 123.753 17.2453 123.753 16.776C123.753 16.488 123.668 16.2533 123.497 16.072C123.337 15.8907 123.071 15.736 122.697 15.608C122.335 15.4693 121.791 15.3147 121.065 15.144C120.116 14.9307 119.465 14.6373 119.113 14.264C118.772 13.8907 118.601 13.416 118.601 12.84C118.601 12.4453 118.708 12.072 118.921 11.72C119.145 11.368 119.471 11.08 119.897 10.856C120.335 10.632 120.857 10.52 121.465 10.52C122.105 10.52 122.644 10.632 123.081 10.856C123.529 11.0693 123.86 11.32 124.073 11.608C124.297 11.896 124.409 12.1307 124.409 12.312C124.409 12.408 124.372 12.488 124.297 12.552C124.233 12.6053 124.153 12.632 124.057 12.632H123.817C123.668 12.632 123.551 12.5627 123.465 12.424C123.252 12.104 123.007 11.864 122.729 11.704C122.463 11.5333 122.041 11.448 121.465 11.448C120.847 11.448 120.377 11.576 120.057 11.832C119.737 12.088 119.577 12.424 119.577 12.84C119.577 13.096 119.641 13.3093 119.769 13.48C119.897 13.6507 120.137 13.8107 120.489 13.96C120.841 14.0987 121.353 14.2427 122.025 14.392C123.017 14.616 123.716 14.9147 124.121 15.288C124.527 15.6613 124.729 16.1573 124.729 16.776C124.729 17.2133 124.607 17.6133 124.361 17.976C124.116 18.3387 123.753 18.6267 123.273 18.84C122.793 19.0533 122.217 19.16 121.545 19.16Z" fill="white"/>
<g clip-path="url(#clip0)">
<path d="M23.5876 1.27589C23.7127 1.13667 23.7821 0.955311 23.7824 0.767119C23.7824 0.564784 23.7034 0.370639 23.5627 0.226961C23.4219 0.0832831 23.2308 0.00170827 23.0309 0H23.0216L10.4715 0.00647635H10.4623C10.2842 0.00644574 10.108 0.043701 9.94476 0.1159C9.78154 0.188099 9.63484 0.293682 9.51387 0.426017C8.68558 1.27229 6.56404 3.40886 2.73616 7.07534C-2.38285 11.9781 1.25094 16.8183 1.25094 16.8183L5.93269 21.557C4.83424 20.3689 6.18224 18.8023 6.18224 18.8023L23.5392 1.3313C23.552 1.31907 23.5648 1.30612 23.5769 1.29316L23.589 1.28021L23.5876 1.27589Z" fill="#0094FF"/>
<path d="M24.174 24.7198L24.1697 24.7155L13.936 14.3702C13.8635 14.2979 13.7777 14.2409 13.6834 14.2023C13.5891 14.1638 13.4882 14.1445 13.3865 14.1456C13.2848 14.1466 13.1843 14.168 13.0909 14.2086C12.9974 14.2491 12.9127 14.3079 12.8418 14.3817L7.42985 19.8307C6.05696 21.4987 6.88098 22.358 6.88098 22.358L10.069 25.7006C10.1504 25.7941 10.2507 25.8688 10.363 25.9198C10.4753 25.9708 10.5971 25.9969 10.7202 25.9964H23.591C23.5995 25.9964 23.6073 25.9964 23.6166 25.9964C23.7623 25.9955 23.9046 25.9521 24.0265 25.8712C24.1484 25.7903 24.2445 25.6756 24.3034 25.5407C24.3623 25.4058 24.3814 25.2565 24.3585 25.1109C24.3355 24.9652 24.2714 24.8294 24.174 24.7198Z" fill="white"/>
</g>
<defs>
<clipPath id="clip0">
<rect width="24.375" height="26" fill="white"/>
</clipPath>
</defs>
</svg>
